<svg version="1.1" xmlns="http://www.w3.org/2000/svg" xmlns:xlink="http://www.w3.org/1999/xlink" width="396.27313" height="137.74052" viewBox="0,0,396.27313,137.74052"><g transform="translate(-41.86344,-111.05998)"><g data-paper-data="{&quot;isPaintingLayer&quot;:true}" fill-rule="nonzero" stroke="none" stroke-width="1" stroke-linecap="butt" stroke-linejoin="miter" stroke-miterlimit="10" stroke-dasharray="" stroke-dashoffset="0" style="mix-blend-mode: normal"><path d="M100.7108,201.8673v-76.67187h19.40625c6.69792,0 11.90625,0.83854 15.625,2.51563c3.71875,1.66666 6.33334,4.28646 7.84375,7.85938c1.52084,3.5625 2.28125,8.18229 2.28125,13.85938v27.82813c0,5.73959 -0.76041,10.42709 -2.28125,14.0625c-1.51041,3.625 -4.10937,6.29166 -7.79687,8c-3.6875,1.69791 -8.84896,2.54688 -15.48437,2.54688zM117.66392,190.13292h2.64063c2.59375,0 4.45833,-0.38021 5.59375,-1.14062c1.13541,-0.76041 1.84375,-1.89584 2.125,-3.40625c0.28125,-1.51041 0.42188,-3.40104 0.42188,-5.67187v-33.42187c0,-2.27084 -0.17187,-4.09896 -0.51562,-5.48437c-0.34375,-1.39584 -1.08334,-2.40625 -2.21875,-3.03125c-1.13541,-0.63541 -2.96875,-0.95312 -5.5,-0.95312h-2.54687z" fill="#004cad"/><path d="M374.76674,201.8673v-76.67187h21.10938c5.17708,0 9.65625,0.56771 13.4375,1.70313c3.79167,1.13541 6.74479,3.17188 8.85938,6.10938c2.11458,2.9375 3.17188,7.08334 3.17188,12.4375c0,3.15625 -0.25521,5.96875 -0.76562,8.4375c-0.5,2.45834 -1.42708,4.58854 -2.78125,6.39063c-1.35417,1.79166 -3.29687,3.28646 -5.82812,4.48438l10.51563,37.10938l15.60938,32.29166c0,0 -6.69026,-1.94221 -13.26897,-5.72863c-5.48926,-3.15938 -9.53695,-6.66389 -11.87741,-10.41855c-1.07256,-1.72064 -3.33853,-5.41603 -4.4065,-7.92844c-1.48753,-3.49946 -2.99759,-7.28063 -4.20649,-11.58391c-4.1006,-14.5968 -7.78751,-30.9915 -7.78751,-30.9915h-4.82812v34.35938zM392.26155,157.75792h4.73438c2.39583,0 4.25521,-0.42709 5.57813,-1.28125c1.32292,-0.85416 2.25,-2.08334 2.78125,-3.6875c0.54167,-1.61459 0.8125,-3.55729 0.8125,-5.82812c0,-3.28125 -0.59896,-5.83334 -1.79687,-7.65625c-1.19792,-1.83334 -3.40625,-2.75 -6.625,-2.75h-5.48437z" fill="#004cad"/><path d="M224.89969,201.8673v-76.67187h25.75c4.60416,0 8.39063,0.86979 11.35938,2.60938c2.96875,1.72916 5.17708,4.25 6.625,7.5625c1.45833,3.3125 2.1875,7.33854 2.1875,12.07813c0,5.92709 -0.97917,10.45313 -2.9375,13.57813c-1.95833,3.125 -4.60937,5.28646 -7.95312,6.48438c-3.34375,1.19791 -7.09896,1.79688 -11.26563,1.79688h-6.8125v32.5625zM241.85282,157.47667h5.67188c2.08334,0 3.66146,-0.38021 4.73438,-1.14062c1.07291,-0.76041 1.78125,-1.89584 2.125,-3.40625c0.35417,-1.51041 0.53125,-3.4375 0.53125,-5.78125c0,-1.94791 -0.14583,-3.66146 -0.4375,-5.14062c-0.28125,-1.48959 -0.95834,-2.67709 -2.03125,-3.5625c-1.07291,-0.88541 -2.74479,-1.32812 -5.01562,-1.32812h-5.57812z" fill="#004cad"/><path d="M278.9484,125.19542h25.74997c4.60417,0 8.39063,0.86979 11.35938,2.60938c2.96875,1.72916 5.17708,4.25 6.625,7.5625c1.45833,3.3125 2.1875,7.33854 2.1875,12.07813c0,5.92709 -0.97917,10.45313 -2.9375,13.57813c-1.95833,3.125 -4.60937,5.28646 -7.95312,6.48438c-3.34375,1.19791 -7.09896,1.79688 -11.26562,1.79688h-6.8125v32.5625h-16.9531zM295.90149,157.47667h5.67188c2.08333,0 3.66146,-0.38021 4.73438,-1.14062c1.07292,-0.76041 1.78125,-1.89584 2.125,-3.40625c0.35417,-1.51041 0.53125,-3.4375 0.53125,-5.78125c0,-1.94791 -0.14583,-3.66146 -0.4375,-5.14062c-0.28125,-1.48959 -0.95833,-2.67709 -2.03125,-3.5625c-1.07292,-0.88541 -2.74479,-1.32812 -5.01562,-1.32812h-5.57812z" fill="#004cad"/><path d="M46.14722,202.0673l14.875,-41.26562c0,0 -5.09291,-22.1327 -15.20312,-42.80625c-1.82565,-3.73311 -3.95566,-6.71394 -3.95566,-6.71394c0,0 3.19432,-0.54394 5.04079,0.07291c0.21527,0.07191 0.83756,0.94693 1.01857,1.04831c1.86771,1.04599 1.23808,2.98524 3.77977,4.99784c5.35077,4.23694 5.53408,3.80138 11.51653,11.59488c2.70455,3.52329 8.02187,17.13438 8.02187,17.13438l6.8125,-20.73437h14.10938l-13.45312,39.84375l14.96875,36.82813h-15.90625l-9.375,-22.90625l-8.23437,22.90625z" fill="#004cad"/><path d="M332.99707,201.8673v-76.67187h34.46875v11.54688h-17.51562v19.03125h13.34375v11.73438h-13.34375v22.90625h17.70313v11.45313z" fill="#004cad"/><path d="M152.50012,201.8673v-10.21875l18.73438,-55h-17.89062v-11.45312h34.54688v9.5625l-19.01562,55.65625h19.20313v11.45313z" fill="#004cad"/><path d="M196.51753,201.8673v-76.67187h16.9375v76.67188z" fill="#004cad"/><path d="M105.7108,201.8673v-76.67187h19.40625c6.69792,0 11.90625,0.83854 15.625,2.51563c3.71875,1.66666 6.33334,4.28646 7.84375,7.85938c1.52084,3.5625 2.28125,8.18229 2.28125,13.85938v27.82813c0,5.73959 -0.76041,10.42709 -2.28125,14.0625c-1.51041,3.625 -4.10937,6.29166 -7.79687,8c-3.6875,1.69791 -8.84896,2.54688 -15.48437,2.54688zM122.66392,190.13292h2.64063c2.59375,0 4.45833,-0.38021 5.59375,-1.14062c1.13541,-0.76041 1.84375,-1.89584 2.125,-3.40625c0.28125,-1.51041 0.42188,-3.40104 0.42188,-5.67187v-33.42187c0,-2.27084 -0.17187,-4.09896 -0.51562,-5.48437c-0.34375,-1.39584 -1.08334,-2.40625 -2.21875,-3.03125c-1.13541,-0.63541 -2.96875,-0.95312 -5.5,-0.95312h-2.54687z" fill="#0096ff"/><path d="M381.05841,201.9923v-76.67187h21.10938c5.17708,0 9.65625,0.56771 13.4375,1.70313c3.79167,1.13541 6.74479,3.17188 8.85938,6.10938c2.11458,2.9375 3.17188,7.08334 3.17188,12.4375c0,3.15625 -0.25521,5.96875 -0.76562,8.4375c-0.5,2.45834 -1.42708,4.58854 -2.78125,6.39063c-1.35417,1.79166 -3.29687,3.28646 -5.82812,4.48438l10.51563,37.10938l9.35938,32.29166c0,0 -14.59987,-10.52645 -18.205,-14.91012c-1.89856,-2.30857 -4.31939,-5.48496 -5.83245,-8.72017c-2.32894,-4.97971 -3.42001,-10.0988 -4.25394,-12.40716c-4.67162,-15.3537 -7.00547,-30.61358 -7.00547,-30.61358h-4.82812v34.35938zM397.26155,158.00792h4.73438c2.39583,0 4.25521,-0.42709 5.57813,-1.28125c1.32292,-0.85416 2.25,-2.08334 2.78125,-3.6875c0.54167,-1.61459 0.8125,-3.55729 0.8125,-5.82812c0,-3.28125 -0.59896,-5.83334 -1.79687,-7.65625c-1.19792,-1.83334 -3.40625,-2.75 -6.625,-2.75h-5.48437z" fill="#0096ff"/><path d="M229.89969,201.8673v-76.67187h25.75c4.60417,0 8.39063,0.86979 11.35938,2.60938c2.96875,1.72916 5.17708,4.25 6.625,7.5625c1.45833,3.3125 2.1875,7.33854 2.1875,12.07813c0,5.92709 -0.97917,10.45313 -2.9375,13.57813c-1.95833,3.125 -4.60937,5.28646 -7.95312,6.48438c-3.34375,1.19791 -7.09896,1.79688 -11.26562,1.79688h-6.8125v32.5625zM246.85282,157.47667h5.67188c2.08334,0 3.66146,-0.38021 4.73438,-1.14062c1.07292,-0.76041 1.78125,-1.89584 2.125,-3.40625c0.35417,-1.51041 0.53125,-3.4375 0.53125,-5.78125c0,-1.94791 -0.14583,-3.66146 -0.4375,-5.14062c-0.28125,-1.48959 -0.95833,-2.67709 -2.03125,-3.5625c-1.07292,-0.88541 -2.74479,-1.32812 -5.01563,-1.32812h-5.57812z" fill="#0096ff"/><path d="M283.9484,125.19542h25.74997c4.60417,0 8.39063,0.86979 11.35938,2.60938c2.96875,1.72916 5.17708,4.25 6.625,7.5625c1.45833,3.3125 2.1875,7.33854 2.1875,12.07813c0,5.92709 -0.97917,10.45313 -2.9375,13.57813c-1.95833,3.125 -4.60937,5.28646 -7.95312,6.48438c-3.34375,1.19791 -7.09896,1.79688 -11.26562,1.79688h-6.8125v32.5625h-16.9531zM300.90149,157.47667h5.67188c2.08333,0 3.66146,-0.38021 4.73438,-1.14062c1.07292,-0.76041 1.78125,-1.89584 2.125,-3.40625c0.35417,-1.51041 0.53125,-3.4375 0.53125,-5.78125c0,-1.94791 -0.14583,-3.66146 -0.4375,-5.14062c-0.28125,-1.48959 -0.95833,-2.67709 -2.03125,-3.5625c-1.07292,-0.88541 -2.74479,-1.32812 -5.01562,-1.32812h-5.57812z" fill="#0096ff"/><path d="M51.14722,202.0673l14.875,-41.26562c0,0 -5.09291,-22.1327 -15.20312,-42.80625c-1.82565,-3.73311 -3.95566,-6.71394 -3.95566,-6.71394c0,0 4.93812,2.23826 9.83913,6.11906c5.35077,4.23694 5.53408,3.80138 11.51653,11.59488c2.70455,3.52329 8.02187,17.13438 8.02187,17.13438l6.8125,-20.73437h14.10938l-13.45312,39.84375l14.96875,36.82813h-15.90625l-9.375,-22.90625l-8.23437,22.90625z" fill="#0096ff"/><path d="M337.99707,201.8673v-76.67187h34.46875v11.54688h-17.51562v19.03125h13.34375v11.73438h-13.34375v22.90625h17.70313v11.45313z" fill="#0096ff"/><path d="M157.50012,201.8673v-10.21875l18.73438,-55h-17.89062v-11.45312h34.54688v9.5625l-19.01562,55.65625h19.20313v11.45313z" fill="#0096ff"/><path d="M201.51753,201.8673v-76.67187h16.9375v76.67188z" fill="#0096ff"/><g><path d="M185.99165,248.38091l0.53111,-30.8362h5.82627l4.37634,21.3559l4.56754,-21.3559h5.63507l0.5736,30.8362h-4.19045l-0.45675,-21.43557l-4.37634,21.43557h-3.38848l-4.45601,-21.50992l-0.41427,21.50992z" fill="#004cad"/><path d="M188.08717,248.38091l0.53111,-30.8362h5.82627l4.37634,21.3559l4.56754,-21.3559h5.63507l0.5736,30.8362h-4.19045l-0.45675,-21.43557l-4.37634,21.43557h-3.38848l-4.45601,-21.50992l-0.41427,21.50992z" fill="#0096ff"/></g><g><path d="M223.61853,248.80049c-2.28731,0 -4.06475,-0.41781 -5.33234,-1.25342c-1.26758,-0.83915 -2.14391,-2.03238 -2.62899,-3.57968c-0.48154,-1.55084 -0.72231,-3.40441 -0.72231,-5.56071v-20.86197h5.48105v21.50992c0,0.96307 0.06373,1.8695 0.1912,2.71928c0.12747,0.84977 0.42489,1.53491 0.89226,2.05539c0.47092,0.52049 1.1773,0.78073 2.11913,0.78073c0.98786,0 1.70309,-0.26024 2.14568,-0.78073c0.44613,-0.52049 0.73824,-1.20562 0.87633,-2.05539c0.14163,-0.84977 0.21244,-1.7562 0.21244,-2.71928v-21.50992h5.44387v20.86197c0,2.1563 -0.24254,4.00987 -0.72762,5.56071c-0.48154,1.54729 -1.35078,2.74052 -2.60775,3.57968c-1.25342,0.83561 -3.0344,1.25342 -5.34296,1.25342z" fill="#004cad"/><path d="M225.71406,248.80049c-2.28731,0 -4.06475,-0.41781 -5.33234,-1.25342c-1.26758,-0.83915 -2.14391,-2.03238 -2.62899,-3.57968c-0.48154,-1.55084 -0.72231,-3.40441 -0.72231,-5.56071v-20.86197h5.48105v21.50992c0,0.96307 0.06373,1.8695 0.1912,2.71928c0.12747,0.84977 0.42489,1.53491 0.89226,2.05539c0.47092,0.52049 1.1773,0.78073 2.11913,0.78073c0.98786,0 1.70309,-0.26024 2.14568,-0.78073c0.44613,-0.52049 0.73824,-1.20562 0.87633,-2.05539c0.14163,-0.84977 0.21244,-1.7562 0.21244,-2.71928v-21.50992h5.44387v20.86197c0,2.1563 -0.24254,4.00987 -0.72762,5.56071c-0.48154,1.54729 -1.35078,2.74052 -2.60775,3.57968c-1.25342,0.83561 -3.0344,1.25342 -5.34296,1.25342z" fill="#0096ff"/></g><g><path d="M247.57649,248.80049c-1.85534,0 -3.40441,-0.36115 -4.64721,-1.08346c-1.2428,-0.72585 -2.18286,-1.78629 -2.82019,-3.18134c-0.63379,-1.39505 -0.98786,-3.10876 -1.06222,-5.14114l4.83309,-0.95069c0.05311,1.19323 0.20005,2.24659 0.44082,3.1601c0.24077,0.91351 0.60723,1.61812 1.0994,2.11381c0.4957,0.4957 1.15074,0.74355 1.9651,0.74355c0.91351,0 1.55969,-0.27263 1.93855,-0.81791c0.3824,-0.54881 0.5736,-1.24103 0.5736,-2.07664c0,-1.34547 -0.3045,-2.44841 -0.91351,-3.30881c-0.60901,-0.86394 -1.42161,-1.72787 -2.43779,-2.59181l-3.88241,-3.42565c-1.09054,-0.9383 -1.95979,-1.98458 -2.60775,-3.13886c-0.64795,-1.15782 -0.97193,-2.5865 -0.97193,-4.28605c0,-2.43602 0.70992,-4.31437 2.12975,-5.63507c1.42337,-1.32068 3.36547,-1.98103 5.82627,-1.98103c1.44816,0 2.65378,0.22306 3.61685,0.66919c0.96662,0.44259 1.73496,1.05867 2.30501,1.84826c0.57005,0.78604 0.99494,1.68007 1.27466,2.6821c0.27972,1.00203 0.45675,2.0607 0.53111,3.17603l-4.79592,0.83915c-0.04957,-0.96307 -0.15757,-1.82525 -0.32398,-2.5865c-0.16288,-0.76125 -0.45499,-1.35787 -0.87633,-1.78984c-0.41781,-0.43197 -1.03212,-0.64795 -1.84295,-0.64795c-0.83915,0 -1.48179,0.27263 -1.92793,0.81791c-0.44259,0.54528 -0.66389,1.22332 -0.66389,2.03415c0,1.04097 0.21599,1.89783 0.64795,2.57057c0.43197,0.67274 1.05336,1.36495 1.86419,2.07664l3.84523,3.38848c1.27112,1.06576 2.35636,2.31564 3.2557,3.74963c0.90289,1.43399 1.35433,3.16541 1.35433,5.19425c0,1.47294 -0.32398,2.78124 -0.97193,3.9249c-0.64795,1.14012 -1.54907,2.03415 -2.70335,2.6821c-1.15427,0.64795 -2.50507,0.97193 -4.05236,0.97193z" fill="#004cad"/><path d="M249.67202,248.80049c-1.85534,0 -3.40441,-0.36115 -4.64721,-1.08346c-1.2428,-0.72585 -2.18286,-1.78629 -2.82019,-3.18134c-0.63379,-1.39505 -0.98786,-3.10876 -1.06222,-5.14114l4.83309,-0.95069c0.05311,1.19323 0.20005,2.24659 0.44082,3.1601c0.24077,0.91351 0.60723,1.61812 1.0994,2.11381c0.4957,0.4957 1.15074,0.74355 1.9651,0.74355c0.91351,0 1.55969,-0.27263 1.93855,-0.81791c0.3824,-0.54881 0.5736,-1.24103 0.5736,-2.07664c0,-1.34547 -0.3045,-2.44841 -0.91351,-3.30881c-0.60901,-0.86394 -1.42161,-1.72787 -2.43779,-2.59181l-3.88241,-3.42565c-1.09054,-0.9383 -1.95979,-1.98458 -2.60775,-3.13886c-0.64795,-1.15782 -0.97193,-2.5865 -0.97193,-4.28605c0,-2.43602 0.70992,-4.31437 2.12975,-5.63507c1.42337,-1.32068 3.36547,-1.98103 5.82627,-1.98103c1.44816,0 2.65378,0.22306 3.61685,0.66919c0.96662,0.44259 1.73496,1.05867 2.30501,1.84826c0.57005,0.78604 0.99494,1.68007 1.27466,2.6821c0.27972,1.00203 0.45675,2.0607 0.53111,3.17603l-4.79592,0.83915c-0.04957,-0.96307 -0.15757,-1.82525 -0.32398,-2.5865c-0.16288,-0.76125 -0.45499,-1.35787 -0.87633,-1.78984c-0.41781,-0.43197 -1.03212,-0.64795 -1.84295,-0.64795c-0.83915,0 -1.48179,0.27263 -1.92793,0.81791c-0.44259,0.54528 -0.66389,1.22332 -0.66389,2.03415c0,1.04097 0.21599,1.89783 0.64795,2.57057c0.43197,0.67274 1.05336,1.36495 1.86419,2.07664l3.84523,3.38848c1.27112,1.06576 2.35636,2.31564 3.2557,3.74963c0.90289,1.43399 1.35433,3.16541 1.35433,5.19425c0,1.47294 -0.32398,2.78124 -0.97193,3.9249c-0.64795,1.14012 -1.54907,2.03415 -2.70335,2.6821c-1.15427,0.64795 -2.50507,0.97193 -4.05236,0.97193z" fill="#0096ff"/></g><g><path d="M261.86244,248.38091v-30.8362h5.5554v30.8362z" fill="#004cad"/><path d="M263.95796,248.38091v-30.8362h5.5554v30.8362z" fill="#0096ff"/></g><g><path d="M283.57441,248.80049c-2.25898,0 -4.02935,-0.44436 -5.31109,-1.33308c-1.28174,-0.88872 -2.17755,-2.09965 -2.68741,-3.63279c-0.50632,-1.53667 -0.75949,-3.30881 -0.75949,-5.3164v-10.99927c0,-2.10674 0.25317,-3.93375 0.75949,-5.48105c0.50986,-1.55084 1.40567,-2.74407 2.68741,-3.57968c1.28174,-0.83914 3.05211,-1.25872 5.31109,-1.25872c2.13151,0 3.7992,0.36292 5.00305,1.08876c1.20738,0.72231 2.06425,1.7562 2.57057,3.10168c0.50986,1.34547 0.7648,2.90693 0.7648,4.68438v2.5865h-5.40669v-2.66617c0,-0.8604 -0.04426,-1.64644 -0.13278,-2.35812c-0.08852,-0.71169 -0.33105,-1.27643 -0.72762,-1.69424c-0.39302,-0.41781 -1.07107,-0.62671 -2.03415,-0.62671c-0.96307,0 -1.66768,0.2213 -2.11381,0.66389c-0.44259,0.44259 -0.72762,1.03921 -0.85509,1.78984c-0.12747,0.7471 -0.1912,1.59156 -0.1912,2.53339v13.39988c0,1.11533 0.08852,2.03592 0.26555,2.76177c0.17703,0.72231 0.50101,1.26758 0.97193,1.63582c0.47092,0.36823 1.11179,0.55235 1.92262,0.55235c0.9383,0 1.60395,-0.2213 1.99697,-0.66389c0.39302,-0.44613 0.64088,-1.03743 0.74355,-1.7739c0.10268,-0.73647 0.15402,-1.56146 0.15402,-2.47497v-2.7777h5.40669v2.47497c0,1.82702 -0.24254,3.44513 -0.72762,4.85434c-0.48154,1.40567 -1.32601,2.5086 -2.53339,3.30881c-1.20385,0.80021 -2.89631,1.20031 -5.0774,1.20031z" fill="#004cad"/><path d="M285.66993,248.80049c-2.25898,0 -4.02935,-0.44436 -5.31109,-1.33308c-1.28174,-0.88872 -2.17755,-2.09965 -2.68741,-3.63279c-0.50632,-1.53667 -0.75949,-3.30881 -0.75949,-5.3164v-10.99927c0,-2.10674 0.25317,-3.93375 0.75949,-5.48105c0.50986,-1.55084 1.40567,-2.74407 2.68741,-3.57968c1.28174,-0.83914 3.05211,-1.25872 5.31109,-1.25872c2.13151,0 3.7992,0.36292 5.00305,1.08876c1.20738,0.72231 2.06425,1.7562 2.57057,3.10168c0.50986,1.34547 0.7648,2.90693 0.7648,4.68438v2.5865h-5.40669v-2.66617c0,-0.8604 -0.04426,-1.64644 -0.13278,-2.35812c-0.08852,-0.71169 -0.33105,-1.27643 -0.72762,-1.69424c-0.39302,-0.41781 -1.07107,-0.62671 -2.03415,-0.62671c-0.96307,0 -1.66768,0.2213 -2.11381,0.66389c-0.44259,0.44259 -0.72762,1.03921 -0.85509,1.78984c-0.12747,0.7471 -0.1912,1.59156 -0.1912,2.53339v13.39988c0,1.11533 0.08852,2.03592 0.26555,2.76177c0.17703,0.72231 0.50101,1.26758 0.97193,1.63582c0.47092,0.36823 1.11179,0.55235 1.92262,0.55235c0.9383,0 1.60395,-0.2213 1.99697,-0.66389c0.39302,-0.44613 0.64088,-1.03743 0.74355,-1.7739c0.10268,-0.73647 0.15402,-1.56146 0.15402,-2.47497v-2.7777h5.40669v2.47497c0,1.82702 -0.24254,3.44513 -0.72762,4.85434c-0.48154,1.40567 -1.32601,2.5086 -2.53339,3.30881c-1.20385,0.80021 -2.89631,1.20031 -5.0774,1.20031z" fill="#0096ff"/></g></g></g></svg>